<svg width="174.76246337890623px" height="126.40000610351562px" xmlns="http://www.w3.org/2000/svg" viewBox="162.6187683105469 11.799996948242189 174.76246337890623 126.40000610351562" style="background: rgba(255, 255, 255, 0);" preserveAspectRatio="xMidYMid"><defs><filter id="editing-offset"><feFlood flood-color="rgba(54.90196078431373%,81.56862745098039%,89.80392156862746%,0.67)" flood-opacity="0.5" result="c1"></feFlood><feFlood flood-color="#126666" flood-opacity="0.5" result="c2"></feFlood><feFlood flood-color="rgba(87.05882352941177%,51.27673650158594%,41.5686274509804%,0.572)" flood-opacity="0.5" result="c3"></feFlood><feComposite operator="in" in="c1" in2="SourceAlpha" result="text-c1"></feComposite><feComposite operator="in" in="c2" in2="SourceAlpha" result="text-c2"></feComposite><feComposite operator="in" in="c3" in2="SourceAlpha" result="text-c3"></feComposite><feOffset in="text-c1" dx="-10" dy="0" result="text1"></feOffset><feOffset in="text-c2" dx="10" dy="0" result="text2"></feOffset><feOffset in="text-c3" dx="0" dy="0" result="text3"></feOffset><feMerge><feMergeNode in="text1"></feMergeNode><feMergeNode in="text2"></feMergeNode><feMergeNode in="text3"></feMergeNode></feMerge></filter></defs><g filter="url(#editing-offset)"><g transform="translate(193.03997945785522, 97.61999702453613)"><path d="M10.59-43.55L10.59-43.55L10.59-43.55Q12.86-44.61 14.62-44.90L14.62-44.90L14.62-44.90Q16.38-45.18 18.08-45.18L18.08-45.18L18.08-45.18Q19.78-45.18 21.50-44.90L21.50-44.90L21.50-44.90Q23.23-44.61 25.31-43.68L25.31-43.68L25.31-43.68Q27.39-42.75 29.06-41.31L29.06-41.31L29.06-41.31Q30.72-39.87 32-37.34L32-37.34L32-37.34Q33.28-34.82 33.60-31.49L33.60-31.49L33.60-31.49Q33.60-30.08 32.32-30.08L32.32-30.08L31.74-30.08L31.74-30.08Q30.59-30.08 30.46-31.23L30.46-31.23L30.46-31.23Q30.14-33.92 29.12-35.97L29.12-35.97L29.12-35.97Q28.10-38.02 26.75-39.10L26.75-39.10L26.75-39.10Q25.41-40.19 23.68-40.90L23.68-40.90L23.68-40.90Q21.12-41.98 18.91-41.98L18.91-41.98L18.91-41.98Q16.70-41.98 15.26-41.73L15.26-41.73L15.26-41.73Q13.82-41.47 12.03-40.64L12.03-40.64L12.03-40.64Q10.24-39.81 8.90-38.43L8.90-38.43L8.90-38.43Q7.55-37.06 6.62-34.56L6.62-34.56L6.62-34.56Q5.70-32.06 5.70-28.80L5.70-28.80L5.70-16.26L5.70-16.26Q5.70-12.99 6.72-10.50L6.72-10.50L6.72-10.50Q7.74-8 9.18-6.62L9.18-6.62L9.18-6.62Q10.62-5.25 12.54-4.42L12.54-4.42L12.54-4.42Q15.62-3.07 18.30-3.07L18.30-3.07L18.30-3.07Q20.99-3.07 22.88-3.55L22.88-3.55L22.88-3.55Q24.77-4.03 26.62-5.25L26.62-5.25L26.62-5.25Q30.59-7.74 30.59-14.53L30.59-14.53L30.59-14.53Q30.59-15.62 30.94-15.94L30.94-15.94L30.94-15.94Q31.30-16.26 31.87-16.26L31.87-16.26L32.38-16.26L32.38-16.26Q33.66-16.26 33.66-14.98L33.66-14.98L33.66-14.98Q33.66-11.07 32.42-8.13L32.42-8.13L32.42-8.13Q31.17-5.18 29.50-3.68L29.50-3.68L29.50-3.68Q27.84-2.18 25.60-1.28L25.60-1.28L25.60-1.28Q22.14 0.06 19.55 0.06L19.55 0.06L19.55 0.06Q16.96 0.06 15.07-0.26L15.07-0.26L15.07-0.26Q13.18-0.58 10.85-1.66L10.85-1.66L10.85-1.66Q8.51-2.75 6.75-4.42L6.75-4.42L6.75-4.42Q4.99-6.08 3.78-9.12L3.78-9.12L3.78-9.12Q2.56-12.16 2.56-16.06L2.56-16.06L2.56-29.06L2.56-29.06Q2.56-33.09 3.74-36.16L3.74-36.16L3.74-36.16Q4.93-39.23 6.62-40.86L6.62-40.86L6.62-40.86Q8.32-42.50 10.59-43.55ZM70.53-44.99L70.53-44.99L70.53-44.99Q71.55-44.99 72.32-44.32L72.32-44.32L72.32-44.32Q73.09-43.65 73.09-42.24L73.09-42.24L73.09-1.28L73.09-1.28Q73.09-0.77 72.74-0.38L72.74-0.38L72.74-0.38Q72.38 0 71.81 0L71.81 0L71.23 0L71.23 0Q70.66 0 70.30-0.38L70.30-0.38L70.30-0.38Q69.95-0.77 69.95-1.28L69.95-1.28L69.95-39.36L58.82-11.84L58.82-11.84Q58.11-10.18 56.51-9.98L56.51-9.98L56.51-9.98Q54.66-9.98 53.89-11.78L53.89-11.78L42.11-39.62L42.11-1.28L42.11-1.28Q42.11-0.77 41.73-0.38L41.73-0.38L41.73-0.38Q41.34 0 40.83 0L40.83 0L40.19 0L40.19 0Q39.68 0 39.33-0.38L39.33-0.38L39.33-0.38Q38.98-0.77 38.98-1.28L38.98-1.28L38.98-42.24L38.98-42.24Q38.98-44.99 41.47-44.99L41.47-44.99L41.47-44.99Q43.20-44.99 44.03-43.07L44.03-43.07L56.32-14.08L67.97-43.07L67.97-43.07Q68.86-44.99 70.53-44.99ZM88.29-43.55L88.29-43.55L88.29-43.55Q90.56-44.61 92.32-44.90L92.32-44.90L92.32-44.90Q94.08-45.18 95.78-45.18L95.78-45.18L95.78-45.18Q97.47-45.18 99.20-44.90L99.20-44.90L99.20-44.90Q100.93-44.61 103.01-43.68L103.01-43.68L103.01-43.68Q105.09-42.75 106.75-41.31L106.75-41.31L106.75-41.31Q108.42-39.87 109.70-37.34L109.70-37.34L109.70-37.34Q110.98-34.82 111.30-31.49L111.30-31.49L111.30-31.49Q111.30-30.08 110.02-30.08L110.02-30.08L109.44-30.08L109.44-30.08Q108.29-30.08 108.16-31.23L108.16-31.23L108.16-31.23Q107.84-33.92 106.82-35.97L106.82-35.97L106.82-35.97Q105.79-38.02 104.45-39.10L104.45-39.10L104.45-39.10Q103.10-40.19 101.38-40.90L101.38-40.90L101.38-40.90Q98.82-41.98 96.61-41.98L96.61-41.98L96.61-41.98Q94.40-41.98 92.96-41.73L92.96-41.73L92.96-41.73Q91.52-41.47 89.73-40.64L89.73-40.64L89.73-40.64Q87.94-39.81 86.59-38.43L86.59-38.43L86.59-38.43Q85.25-37.06 84.32-34.56L84.32-34.56L84.32-34.56Q83.39-32.06 83.39-28.80L83.39-28.80L83.39-16.26L83.39-16.26Q83.39-12.99 84.42-10.50L84.42-10.50L84.42-10.50Q85.44-8 86.88-6.62L86.88-6.62L86.88-6.62Q88.32-5.25 90.24-4.42L90.24-4.42L90.24-4.42Q93.31-3.07 96-3.07L96-3.07L96-3.07Q98.69-3.07 100.58-3.55L100.58-3.55L100.58-3.55Q102.46-4.03 104.32-5.25L104.32-5.25L104.32-5.25Q108.29-7.74 108.29-14.53L108.29-14.53L108.29-14.53Q108.29-15.62 108.64-15.94L108.64-15.94L108.64-15.94Q108.99-16.26 109.57-16.26L109.57-16.26L110.08-16.26L110.08-16.26Q111.36-16.26 111.36-14.98L111.36-14.98L111.36-14.98Q111.36-11.07 110.11-8.13L110.11-8.13L110.11-8.13Q108.86-5.18 107.20-3.68L107.20-3.68L107.20-3.68Q105.54-2.18 103.30-1.28L103.30-1.28L103.30-1.28Q99.84 0.06 97.25 0.06L97.25 0.06L97.25 0.06Q94.66 0.06 92.77-0.26L92.77-0.26L92.77-0.26Q90.88-0.58 88.54-1.66L88.54-1.66L88.54-1.66Q86.21-2.75 84.45-4.42L84.45-4.42L84.45-4.42Q82.69-6.08 81.47-9.12L81.47-9.12L81.47-9.12Q80.26-12.16 80.26-16.06L80.26-16.06L80.26-29.06L80.26-29.06Q80.26-33.09 81.44-36.16L81.44-36.16L81.44-36.16Q82.62-39.23 84.32-40.86L84.32-40.86L84.32-40.86Q86.02-42.50 88.29-43.55Z"></path></g></g><style>text {
  font-size: 64px;
  font-family: Arial Black;
  dominant-baseline: central;
  text-anchor: middle;
}</style></svg>